<?xml version="1.0" standalone="no"?>
<!DOCTYPE svg PUBLIC "-//W3C//DTD SVG 20010904//EN"
 "http://www.w3.org/TR/2001/REC-SVG-20010904/DTD/svg10.dtd">
<svg version="1.0" xmlns="http://www.w3.org/2000/svg"
 width="213.000000pt" height="215.000000pt" viewBox="0 0 213.000000 215.000000"
 preserveAspectRatio="xMidYMid meet">

<g transform="translate(0.000000,215.000000) scale(0.100000,-0.100000)"
fill="#000000" stroke="none">
<path d="M1105 1964 c-37 -19 -45 -31 -45 -70 0 -48 34 -84 78 -84 43 1 67 16
81 53 15 39 -4 82 -44 101 -40 19 -34 19 -70 0z m63 -30 c37 -26 20 -94 -24
-94 -53 0 -75 64 -32 94 12 9 25 16 28 16 3 0 16 -7 28 -16z"/>
<path d="M1337 1804 c-47 -47 -47 -106 1 -156 20 -21 35 -28 65 -28 115 0 158
126 67 197 -8 7 -36 13 -61 13 -37 0 -52 -5 -72 -26z m136 -35 c17 -24 18 -31
7 -63 -20 -61 -75 -74 -123 -31 -32 31 -34 63 -6 99 29 37 92 34 122 -5z"/>
<path d="M835 1756 c-37 -16 -62 -44 -65 -71 -6 -52 2 -78 29 -106 24 -23 38
-29 74 -29 97 0 144 108 78 179 -16 17 -36 31 -44 31 -9 0 -21 2 -29 5 -7 2
-26 -2 -43 -9z m92 -48 c30 -28 29 -68 -2 -102 -32 -35 -69 -34 -106 4 -32 32
-33 50 -3 98 20 30 79 30 111 0z"/>
<path d="M1089 1610 c-34 -18 -63 -60 -71 -105 -3 -17 -13 -21 -83 -25 -44 -3
-101 -14 -127 -24 l-48 -19 -39 36 c-54 49 -106 64 -165 47 -93 -26 -150 -122
-126 -211 12 -43 64 -109 86 -109 19 0 18 -14 -5 -58 -49 -98 -52 -224 -7
-352 34 -100 79 -172 163 -260 84 -89 167 -141 283 -177 100 -30 198 -28 276
7 62 27 230 134 270 172 30 28 32 28 75 17 60 -16 112 -5 155 33 46 41 64 77
64 133 0 90 -59 157 -151 173 -41 7 -42 8 -64 74 -32 95 -62 153 -116 225 -54
71 -115 132 -171 170 -21 14 -38 28 -38 31 0 3 9 24 19 46 35 73 6 152 -66
182 -43 19 -71 17 -114 -6z m106 -24 c40 -17 55 -42 55 -94 0 -71 -78 -119
-139 -87 -77 39 -81 143 -7 179 39 19 48 19 91 2z m-545 -102 c22 -9 49 -28
59 -43 l19 -26 -85 -98 c-46 -53 -88 -97 -93 -97 -18 0 -78 60 -90 90 -25 60
16 146 85 176 40 17 57 17 105 -2z m396 -74 c31 -34 77 -52 127 -48 74 5 228
-137 309 -282 36 -65 70 -162 61 -171 -5 -5 -35 5 -68 20 -78 37 -375 176
-440 206 -27 13 -90 42 -140 65 -49 23 -113 53 -142 66 -28 12 -54 28 -58 34
-9 14 58 85 100 107 48 25 75 31 152 32 69 1 74 -1 99 -29z m-240 -216 c66
-31 151 -71 189 -89 39 -18 106 -49 150 -70 101 -47 222 -103 303 -140 34 -16
62 -31 62 -34 0 -3 -13 -20 -28 -38 l-27 -32 -200 90 c-110 49 -209 94 -220
99 -11 5 -101 46 -200 90 l-180 80 1 34 c1 41 10 66 23 66 5 0 62 -25 127 -56z
m-187 -211 c44 -169 198 -369 351 -455 87 -49 86 -47 28 -84 -60 -39 -73 -38
-163 11 -106 59 -195 156 -255 280 -79 163 -79 311 -1 435 15 23 16 21 23 -60
3 -47 11 -104 17 -127z m113 88 c35 -16 169 -76 298 -134 129 -58 265 -119
302 -136 36 -17 71 -31 76 -31 22 0 42 -33 42 -67 0 -20 10 -55 22 -79 21 -42
21 -44 3 -64 -10 -11 -43 -32 -74 -47 -76 -36 -186 -38 -283 -4 -145 49 -302
184 -386 332 -58 103 -102 259 -73 259 5 0 38 -13 73 -29z m956 -231 c66 -40
89 -116 56 -186 -20 -41 -45 -61 -97 -75 -33 -9 -45 -7 -85 13 -79 39 -110
135 -65 196 51 69 128 90 191 52z m-595 -387 c-7 -2 -19 -2 -25 0 -7 3 -2 5
12 5 14 0 19 -2 13 -5z m137 -27 c0 -2 -9 -6 -20 -9 -11 -3 -20 -1 -20 4 0 5
9 9 20 9 11 0 20 -2 20 -4z"/>
<path d="M1505 1466 c-16 -7 -41 -26 -55 -41 -21 -22 -25 -37 -25 -86 0 -54 3
-61 37 -95 67 -67 168 -54 218 28 51 85 -6 193 -107 204 -21 2 -51 -2 -68 -10z
m138 -57 c30 -37 34 -64 13 -114 -14 -33 -59 -65 -91 -65 -32 0 -86 33 -100
61 -19 36 -19 63 0 99 35 68 128 78 178 19z"/>
</g>
</svg>
