<?xml version="1.0" standalone="no"?>
<!DOCTYPE svg PUBLIC "-//W3C//DTD SVG 20010904//EN"
 "http://www.w3.org/TR/2001/REC-SVG-20010904/DTD/svg10.dtd">
<svg version="1.0" xmlns="http://www.w3.org/2000/svg"
 width="300.000000pt" height="300.000000pt" viewBox="0 0 300.000000 300.000000"
 preserveAspectRatio="xMidYMid meet">

<g transform="translate(0.000000,300.000000) scale(0.100000,-0.100000)"
fill="#000000" stroke="none">
<path d="M1300 2709 c-277 -53 -481 -160 -675 -353 -204 -203 -319 -454 -346
-758 -41 -441 168 -871 546 -1125 187 -125 385 -188 625 -199 415 -19 806 175
1053 521 71 100 153 274 184 390 25 94 27 113 27 315 0 201 -2 221 -27 313
-54 202 -206 454 -351 582 -294 260 -691 381 -1036 314z m437 -135 c43 -8 119
-33 170 -53 308 -127 539 -383 640 -708 26 -84 27 -98 27 -298 l0 -210 -33
-100 c-125 -379 -399 -643 -769 -742 -86 -23 -117 -26 -272 -27 -152 -1 -186
2 -257 22 -190 51 -348 140 -487 272 -105 99 -167 184 -227 305 -79 161 -101
251 -107 438 -5 180 5 265 48 392 54 161 143 297 276 425 177 170 373 268 600
299 92 13 294 5 391 -15z"/>
<path d="M1460 2310 c-13 -8 -15 -62 -18 -363 l-3 -354 -344 -5 c-389 -6 -395
-7 -395 -73 0 -29 5 -37 27 -46 14 -5 179 -12 369 -16 l342 -6 4 -352 c3 -382
4 -385 58 -385 54 0 55 3 58 385 l4 352 342 6 c194 3 354 10 369 16 22 9 27
17 27 46 0 65 -5 66 -393 72 l-345 6 -4 347 c-2 276 -6 350 -17 363 -15 19
-57 22 -81 7z"/>
</g>
</svg>
