<?xml version="1.0" standalone="no"?>
<!DOCTYPE svg PUBLIC "-//W3C//DTD SVG 20010904//EN"
 "http://www.w3.org/TR/2001/REC-SVG-20010904/DTD/svg10.dtd">
<svg version="1.0" xmlns="http://www.w3.org/2000/svg"
 width="225.000000pt" height="224.000000pt" viewBox="0 0 225.000000 224.000000"
 preserveAspectRatio="xMidYMid meet">

<g transform="translate(0.000000,224.000000) scale(0.100000,-0.100000)"
fill="#000000" stroke="none">
<path d="M980 1795 c-282 -63 -493 -270 -554 -542 -84 -374 142 -746 515 -849
46 -13 98 -18 189 -17 108 0 136 4 205 27 44 15 107 42 140 61 125 69 252 214
305 345 12 30 27 66 32 80 6 14 13 86 16 160 5 162 -14 254 -77 372 -92 171
-251 298 -441 353 -79 23 -250 28 -330 10z m335 -53 c173 -55 304 -161 398
-323 33 -56 70 -166 63 -185 -5 -12 -111 -14 -657 -14 l-652 0 5 45 c3 24 24
82 47 129 95 191 278 326 501 370 54 10 236 -3 295 -22z m475 -647 c0 -92 -1
-95 -22 -95 -468 -3 -1301 1 -1308 5 -11 7 -14 168 -3 178 3 4 305 7 670 7
l663 0 0 -95z m-16 -134 c8 -12 -22 -107 -51 -166 -95 -186 -275 -320 -487
-360 -310 -59 -632 128 -742 431 -43 117 -119 104 625 104 362 0 652 -4 655
-9z"/>
</g>
</svg>
